<svg xmlns="http://www.w3.org/2000/svg" viewBox="0 0 1685.67 253.61"><defs><style>.cls-1{isolation:isolate;}</style></defs><g id="Layer_2" data-name="Layer 2"><g id="Layer_1-2" data-name="Layer 1"><g class="cls-1"><path d="M6.81,252.17V49.07H0L5,1.43H38.69l35.46-.36,17.19,135.4,17.55-135h67.34V252.17H127.52V102.45l-19,113.9h-34l-19-113.9V252.17Z"/></g><g class="cls-1"><path d="M313.06,202.38q0,27.23-12,39.23t-39.58,12H245.72q-27.58,0-39.58-12t-12-39.23V51.22q0-27.57,12-39.4T245.72,0h15.76q27.58,0,39.58,11.82t12,39.4ZM244.65,47.64a1.58,1.58,0,0,0-1.79,1.79V204.17a1.58,1.58,0,0,0,1.79,1.79h17.91a1.58,1.58,0,0,0,1.79-1.79V49.43a1.58,1.58,0,0,0-1.79-1.79Z"/></g><g class="cls-1"><path d="M364.28,252.17,327.39,1.43h48.36l25.43,178.39L426.61,1.43H475l-36.9,250.74Z"/></g><g class="cls-1"><path d="M494.32,252.17V49.07h-6.81l5-47.64H595L592.1,49.07H543V102.8h44.06l-2.87,47.64H543v54.09H595l-2.87,47.64Z"/><path d="M616.1,252.17V49.07h-6.8l5-47.64H648l35.46-.36,17.2,135.4,17.55-135h67.34V252.17H736.82V102.45l-19,113.9h-34l-19-113.9V252.17Z"/><path d="M806.66,252.17V49.07h-6.8l5-47.64H907.32l-2.87,47.64H855.38V102.8h44.06l-2.87,47.64H855.38v54.09h51.94l-2.87,47.64Z"/><path d="M928.45,252.17V49.07h-6.81l5-47.64h50.51L1018,137.55V1.43h48.72V252.17H1018L977.17,116.06V252.17Z"/><path d="M1114.35,252.17V49.07H1081V1.43h115V49.07h-33v203.1Z"/></g><g class="cls-1"><path d="M1334.29,150.8l2.87-47.64h60.17v99.22q0,27.23-12,39.23t-39.58,12h-19.34q-27.59,0-39.58-12t-12-39.23V51.22q0-27.57,12-39.4T1326.41,0h19.34q27.59,0,39.58,11.82t12,39.4V86.68l-48.71-5.37V49.43a1.58,1.58,0,0,0-1.79-1.79h-21.49a1.59,1.59,0,0,0-1.8,1.79V204.17a1.58,1.58,0,0,0,1.8,1.79h21.49a1.58,1.58,0,0,0,1.79-1.79V150.8Z"/></g><g class="cls-1"><path d="M1541,202.38q0,27.23-12,39.23t-39.58,12H1470q-27.6,0-39.58-12t-12-39.23V49.07h-6.81l5-47.64h50.51V204.17A1.58,1.58,0,0,0,1469,206h21.49a1.58,1.58,0,0,0,1.79-1.79V1.43H1541Z"/><path d="M1595.4,252.17V155.82L1553.49,1.43h48.36l17.91,84.9,17.55-84.9h48.36l-41.91,154.39v96.35Z"/></g></g></g></svg>